<svg width="511.998" height="511" xmlns="http://www.w3.org/2000/svg">

 <g>
  <title>background</title>
  <rect fill="none" id="canvas_background" height="482" width="642" y="-1" x="-1"/>
 </g>
 <g>
  <title>Layer 1</title>
  <g id="svg_1">
   <g id="svg_2">
    <g id="svg_3">
     <g id="svg_4">
      <path id="svg_5" fill="#FF6584" d="m477.453125,421.53125l-445.472656,0c-14.078125,0 -25.488281,-11.410156 -25.488281,-25.484375l0,-362.566406c0,-14.078125 11.410156,-25.488281 25.488281,-25.488281l445.472656,0c14.074219,0 25.484375,11.410156 25.484375,25.488281l0,362.566406c0,14.074219 -11.410156,25.484375 -25.484375,25.484375zm0,0"/>
      <path id="svg_6" fill="#FF6584" d="m502.941406,33.480469l0,362.566406c0,14.074219 -11.410156,25.484375 -25.484375,25.484375l-31.132812,0c14.078125,0 25.484375,-11.410156 25.484375,-25.484375l0,-362.566406c0,-14.074219 -11.40625,-25.484375 -25.484375,-25.484375l31.132812,0c14.074219,0 25.484375,11.410156 25.484375,25.484375zm0,0"/>
      <path id="svg_7" fill="#2190ec" d="m502.9375,360.128906l-496.445312,0l0,35.917969c0,14.074219 11.410156,25.484375 25.488281,25.484375l445.472656,0c14.074219,0 25.484375,-11.410156 25.484375,-25.484375l0,-35.917969zm0,0"/>
      <path id="svg_8" fill="#2190ec" d="m502.941406,360.128906l0,35.917969c0,14.074219 -11.410156,25.484375 -25.484375,25.484375l-31.132812,0c14.078125,0 25.484375,-11.410156 25.484375,-25.484375l0,-35.917969l31.132812,0zm0,0"/>
      <path id="svg_9" fill="#2190ec" d="m503.507812,94.933594l-496.460937,0l0,-61.457032c0,-14.074218 11.410156,-25.484374 25.484375,-25.484374l445.492188,0c14.074218,0 25.484374,11.410156 25.484374,25.484374l0,61.457032zm0,0"/>
      <path id="svg_10" fill="#2190ec" d="m503.511719,33.472656l0,61.464844l-31.703125,0l0,-61.464844c0,-14.066406 -11.40625,-25.476562 -25.484375,-25.476562l31.699219,0c14.078124,0 25.488281,11.410156 25.488281,25.476562zm0,0"/>
      <path id="svg_11" fill="#2190ec" d="m185.277344,421.53125l138.875,0l0,41.859375l-138.875,0l0,-41.859375zm0,0"/>
      <path id="svg_12" fill="#2190ec" d="m369.152344,504.453125l-228.875,0c-2.757813,0 -4.996094,-2.238281 -4.996094,-4.996094l0,-16.1875c0,-10.976562 8.902344,-19.878906 19.878906,-19.878906l199.113282,0c10.976562,0 19.875,8.902344 19.875,19.878906l0,16.1875c0,2.761719 -2.234376,4.996094 -4.996094,4.996094zm0,0"/>
      <path id="svg_13" fill="#2190ec" d="m374.148438,483.265625l0,16.195313c0,2.757812 -2.238282,4.996093 -4.996094,4.996093l-17.632813,0l0,-21.191406c0,-10.96875 -8.902343,-19.871094 -19.871093,-19.871094l22.628906,0c10.972656,0 19.871094,8.898438 19.871094,19.871094zm0,0"/>
      <path id="svg_14" fill="#FF6584" d="m294.476562,275.613281l162.257813,0l0,30.753907l-162.257813,0l0,-30.753907zm0,0"/>
      <path id="svg_15" fill="#FF6584" d="m294.476562,357.273438l162.257813,0l0,30.757812l-162.257813,0l0,-30.757812zm0,0"/>
      <path id="svg_16" fill="#FF6584" d="m437.550781,275.613281l19.183594,0l0,30.753907l-19.183594,0l0,-30.753907zm0,0"/>
      <path id="svg_17" fill="#FF6584" d="m437.550781,357.273438l19.183594,0l0,30.757812l-19.183594,0l0,-30.757812zm0,0"/>
      <g id="svg_18" fill="#0396fd">
       <path id="svg_19" fill="#2190ec" d="m470.171875,276.613281l-189.128906,0c-4,0 -7.246094,-3.242187 -7.246094,-7.242187l0,-36.417969c0,-4 3.246094,-7.246094 7.246094,-7.246094l189.128906,0c4,0 7.246094,3.246094 7.246094,7.246094l0,36.417969c0,4 -3.246094,7.242187 -7.246094,7.242187zm0,0"/>
       <path id="svg_20" fill="#2190ec" d="m470.171875,358.273438l-189.128906,0c-4,0 -7.246094,-3.242188 -7.246094,-7.242188l0,-36.417969c0,-4 3.246094,-7.246093 7.246094,-7.246093l189.128906,0c4,0 7.246094,3.246093 7.246094,7.246093l0,36.417969c0,4 -3.246094,7.242188 -7.246094,7.242188zm0,0"/>
       <path id="svg_21" fill="#2190ec" d="m470.171875,439.933594l-189.128906,0c-4,0 -7.246094,-3.242188 -7.246094,-7.242188l0,-36.417968c0,-4.003907 3.246094,-7.246094 7.246094,-7.246094l189.128906,0c4,0 7.246094,3.242187 7.246094,7.246094l0,36.417968c0,4 -3.246094,7.242188 -7.246094,7.242188zm0,0"/>
      </g>
      <path id="svg_22" fill="#FCD770" d="m477.414062,231.953125l0,36.417969c0,3.996094 -3.234374,7.242187 -7.242187,7.242187l-16.804687,0c4.007812,0 7.242187,-3.246093 7.242187,-7.242187l0,-36.417969c0,-3.996094 -3.234375,-7.242187 -7.242187,-7.242187l16.804687,0c4.007813,0 7.242187,3.246093 7.242187,7.242187zm0,0"/>
      <path id="svg_23" fill="#FCD770" d="m477.414062,313.609375l0,36.417969c0,4.003906 -3.234374,7.242187 -7.242187,7.242187l-16.804687,0c4.007812,0 7.242187,-3.238281 7.242187,-7.242187l0,-36.417969c0,-3.996094 -3.234375,-7.242187 -7.242187,-7.242187l16.804687,0c4.007813,0 7.242187,3.246093 7.242187,7.242187zm0,0"/>
      <path id="svg_24" fill="#FCD770" d="m477.414062,395.277344l0,36.414062c0,3.996094 -3.234374,7.246094 -7.242187,7.246094l-16.804687,0c4.007812,0 7.242187,-3.25 7.242187,-7.246094l0,-36.414062c0,-4.007813 -3.234375,-7.246094 -7.242187,-7.246094l16.804687,0c4.007813,0 7.242187,3.238281 7.242187,7.246094zm0,0"/>
      <path id="svg_25" fill="#FFE529" d="m68.757812,51.25c0,8.007812 -6.488281,14.5 -14.496093,14.5c-8.007813,0 -14.496094,-6.492188 -14.496094,-14.5c0,-8.003906 6.488281,-14.496094 14.496094,-14.496094c8.007812,0 14.496093,6.492188 14.496093,14.496094zm0,0"/>
      <path id="svg_26" fill="#FF6584" d="m124.746094,51.25c0,8.007812 -6.492188,14.5 -14.496094,14.5c-8.007812,0 -14.5,-6.492188 -14.5,-14.5c0,-8.003906 6.492188,-14.496094 14.5,-14.496094c8.003906,0 14.496094,6.492188 14.496094,14.496094zm0,0"/>
      <path id="svg_27" fill="#80E0DC" d="m180.730469,51.25c0,8.007812 -6.488281,14.5 -14.496094,14.5c-8.003906,0 -14.496094,-6.492188 -14.496094,-14.5c0,-8.003906 6.492188,-14.496094 14.496094,-14.496094c8.007813,0 14.496094,6.492188 14.496094,14.496094zm0,0"/>
      <path id="svg_28" fill="#FFE529" d="m68.753906,51.257812c0,8 -6.484375,14.484376 -14.488281,14.484376c-3.875,0 -7.402344,-1.519532 -10,-4.003907c7.84375,-0.171875 14.15625,-6.585937 14.15625,-14.476562c0,-4.136719 -1.726563,-7.855469 -4.496094,-10.492188c0.113281,-0.011719 0.230469,-0.011719 0.339844,-0.011719c8.003906,0 14.488281,6.484376 14.488281,14.5zm0,0"/>
      <path id="svg_29" fill="#FF6584" d="m124.742188,51.257812c0,8 -6.484376,14.484376 -14.496094,14.484376c-3.875,0 -7.394532,-1.519532 -10,-4.003907c7.851562,-0.171875 14.167968,-6.585937 14.167968,-14.476562c0,-4.136719 -1.730468,-7.855469 -4.496093,-10.492188c0.109375,-0.011719 0.21875,-0.011719 0.328125,-0.011719c8.011718,0 14.496094,6.484376 14.496094,14.5zm0,0"/>
      <path id="svg_30" fill="#00a8b0" d="m180.734375,51.257812c0,8 -6.496094,14.484376 -14.5,14.484376c-3.875,0 -7.390625,-1.519532 -10,-4.003907c7.855469,-0.171875 14.15625,-6.585937 14.15625,-14.476562c0,-4.136719 -1.726563,-7.855469 -4.496094,-10.492188c0.113281,-0.011719 0.230469,-0.011719 0.339844,-0.011719c8.003906,0 14.5,6.484376 14.5,14.5zm0,0"/>
      <path id="svg_31" fill="#000000" class="active-path" d="m57.960938,187.046875c1.460937,1.460937 3.378906,2.195313 5.296874,2.195313c1.917969,0 3.835938,-0.730469 5.300782,-2.195313c2.925781,-2.925781 2.925781,-7.671875 0,-10.597656l-18.195313,-18.195313l18.195313,-18.191406c2.925781,-2.929688 2.925781,-7.671875 0,-10.597656c-2.925782,-2.925782 -7.671875,-2.925782 -10.597656,0l-23.492188,23.492187c-1.40625,1.40625 -2.195312,3.3125 -2.195312,5.296875c0,1.988282 0.789062,3.894532 2.195312,5.300782l23.492188,23.492187zm0,0"/>
      <path id="svg_32" fill="#000000" class="active-path" d="m132.320312,158.253906l-18.195312,18.195313c-2.925781,2.925781 -2.925781,7.671875 0.003906,10.597656c1.460938,1.460937 3.378906,2.195313 5.296875,2.195313s3.835938,-0.734376 5.296875,-2.195313l23.496094,-23.496094c2.925781,-2.925781 2.925781,-7.671875 0,-10.59375l-23.496094,-23.496093c-2.925781,-2.925782 -7.667968,-2.925782 -10.59375,0c-2.929687,2.929687 -2.929687,7.671874 0,10.597656l18.191406,18.195312zm0,0"/>
      <path id="svg_33" fill="#000000" class="active-path" d="m80.171875,188.722656c0.898437,0.351563 1.828125,0.519532 2.738281,0.519532c2.992188,0 5.816406,-1.804688 6.976563,-4.753907l18.457031,-46.988281c1.515625,-3.851562 -0.382812,-8.199219 -4.234375,-9.714844c-3.847656,-1.511718 -8.199219,0.382813 -9.710937,4.234375l-18.460938,46.988281c-1.511719,3.851563 0.382812,8.203126 4.234375,9.714844zm0,0"/>
      <path id="svg_34" fill="#000000" class="active-path" d="m44.007812,233.203125l50.480469,0c4.136719,0 7.492188,-3.355469 7.492188,-7.496094c0,-4.136719 -3.355469,-7.492187 -7.492188,-7.492187l-50.480469,0c-4.140624,0 -7.492187,3.355468 -7.492187,7.492187c0,4.140625 3.351563,7.496094 7.492187,7.496094zm0,0"/>
      <path id="svg_35" fill="#000000" class="active-path" d="m210.753906,218.214844l-88.75,0c-4.136718,0 -7.492187,3.355468 -7.492187,7.492187c0,4.140625 3.355469,7.496094 7.492187,7.496094l88.75,0c4.140625,0 7.496094,-3.355469 7.496094,-7.496094c0,-4.136719 -3.355469,-7.492187 -7.496094,-7.492187zm0,0"/>
      <path id="svg_36" fill="#000000" class="active-path" d="m44.007812,264.808594l21.503907,0c4.136719,0 7.492187,-3.355469 7.492187,-7.496094c0,-4.136719 -3.355468,-7.492188 -7.492187,-7.492188l-21.503907,0c-4.140624,0 -7.492187,3.355469 -7.492187,7.492188c0,4.140625 3.351563,7.496094 7.492187,7.496094zm0,0"/>
      <path id="svg_37" fill="#000000" class="active-path" d="m183.339844,249.820312c-4.140625,0 -7.492188,3.355469 -7.492188,7.492188c0,4.140625 3.351563,7.496094 7.492188,7.496094l13.09375,0c4.140625,0 7.496094,-3.355469 7.496094,-7.496094c0,-4.136719 -3.355469,-7.492188 -7.496094,-7.492188l-13.09375,0zm0,0"/>
      <path id="svg_38" fill="#000000" class="active-path" d="m163.617188,257.3125c0,-4.136719 -3.355469,-7.492188 -7.492188,-7.492188l-64.320312,0c-4.140626,0 -7.492188,3.355469 -7.492188,7.492188c0,4.140625 3.351562,7.496094 7.492188,7.496094l64.320312,0c4.136719,0 7.492188,-3.355469 7.492188,-7.496094zm0,0"/>
      <path id="svg_39" fill="#000000" class="active-path" d="m212.703125,257.3125c0,4.140625 3.355469,7.496094 7.492187,7.496094l24.527344,0c4.140625,0 7.496094,-3.355469 7.496094,-7.496094c0,-4.136719 -3.355469,-7.492188 -7.496094,-7.492188l-24.527344,0c-4.136718,0 -7.492187,3.355469 -7.492187,7.492188zm0,0"/>
      <path id="svg_40" fill="#000000" class="active-path" d="m171.894531,164.265625l25.871094,0c4.140625,0 7.496094,-3.355469 7.496094,-7.496094c0,-4.136719 -3.355469,-7.492187 -7.496094,-7.492187l-25.871094,0c-4.140625,0 -7.496093,3.355468 -7.496093,7.492187c0,4.140625 3.355468,7.496094 7.496093,7.496094zm0,0"/>
      <path id="svg_41" fill="#000000" class="active-path" d="m226.742188,164.265625l157.855468,0c4.140625,0 7.492188,-3.355469 7.492188,-7.496094c0,-4.136719 -3.351563,-7.492187 -7.492188,-7.492187l-157.855468,0c-4.140626,0 -7.496094,3.355468 -7.496094,7.492187c0,4.140625 3.355468,7.496094 7.496094,7.496094zm0,0"/>
      <path id="svg_42" fill="#000000" class="active-path" d="m360.621094,182.246094l-63.945313,0c-4.136719,0 -7.492187,3.355468 -7.492187,7.496094c0,4.136718 3.355468,7.492187 7.492187,7.492187l63.945313,0c4.136718,0 7.492187,-3.355469 7.492187,-7.492187c0,-4.140626 -3.355469,-7.496094 -7.492187,-7.496094zm0,0"/>
      <path id="svg_43" fill="#000000" class="active-path" d="m272.699219,182.246094l-21.980469,0c-4.140625,0 -7.492188,3.355468 -7.492188,7.496094c0,4.136718 3.351563,7.492187 7.492188,7.492187l21.980469,0c4.140625,0 7.492187,-3.355469 7.492187,-7.492187c0,-4.140626 -3.351562,-7.496094 -7.492187,-7.496094zm0,0"/>
      <path id="svg_44" fill="#000000" class="active-path" d="m171.894531,197.234375l53.847657,0c4.136718,0 7.492187,-3.355469 7.492187,-7.492187c0,-4.140626 -3.355469,-7.496094 -7.492187,-7.496094l-53.847657,0c-4.140625,0 -7.496093,3.355468 -7.496093,7.496094c0,4.136718 3.355468,7.492187 7.496093,7.492187zm0,0"/>
      <path id="svg_45" fill="#000000" class="active-path" d="m156.21875,281.160156l-50.476562,0c-4.140626,0 -7.496094,3.355469 -7.496094,7.492188c0,4.136718 3.355468,7.492187 7.496094,7.492187l50.476562,0c4.136719,0 7.492188,-3.355469 7.492188,-7.492187c0,-4.136719 -3.355469,-7.492188 -7.492188,-7.492188zm0,0"/>
      <path id="svg_46" fill="#000000" class="active-path" d="m82.789062,281.160156l-38.78125,0c-4.140624,0 -7.492187,3.355469 -7.492187,7.492188c0,4.136718 3.351563,7.492187 7.492187,7.492187l38.78125,0c4.140626,0 7.492188,-3.355469 7.492188,-7.492187c0,-4.136719 -3.351562,-7.492188 -7.492188,-7.492188zm0,0"/>
      <path id="svg_47" fill="#000000" class="active-path" d="m247.722656,281.160156l-65.941406,0c-4.140625,0 -7.492188,3.355469 -7.492188,7.492188c0,4.136718 3.351563,7.492187 7.492188,7.492187l65.941406,0c4.136719,0 7.492188,-3.355469 7.492188,-7.492187c0,-4.136719 -3.355469,-7.492188 -7.492188,-7.492188zm0,0"/>
      <path id="svg_48" fill="#000000" class="active-path" d="m336.898438,242.667969l-36.058594,0c-4.136719,0 -7.492188,3.355469 -7.492188,7.492187c0,4.140625 3.355469,7.496094 7.492188,7.496094l36.058594,0c4.140624,0 7.492187,-3.355469 7.492187,-7.496094c0,-4.136718 -3.351563,-7.492187 -7.492187,-7.492187zm0,0"/>
      <path id="svg_49" fill="#000000" class="active-path" d="m399.46875,257.65625l50.902344,0c4.140625,0 7.496094,-3.355469 7.496094,-7.496094c0,-4.136718 -3.355469,-7.492187 -7.496094,-7.492187l-50.902344,0c-4.140625,0 -7.492188,3.355469 -7.492188,7.492187c0,4.140625 3.355469,7.496094 7.492188,7.496094zm0,0"/>
      <path id="svg_50" fill="#000000" class="active-path" d="m374.015625,242.667969l-11.664063,0c-4.140624,0 -7.496093,3.355469 -7.496093,7.492187c0,4.140625 3.355469,7.496094 7.496093,7.496094l11.664063,0c4.140625,0 7.492187,-3.355469 7.492187,-7.496094c0,-4.136718 -3.351562,-7.492187 -7.492187,-7.492187zm0,0"/>
      <path id="svg_51" fill="#000000" class="active-path" d="m300.839844,339.3125l36.058594,0c4.140624,0 7.492187,-3.351562 7.492187,-7.492188c0,-4.136718 -3.351563,-7.492187 -7.492187,-7.492187l-36.058594,0c-4.136719,0 -7.492188,3.355469 -7.492188,7.492187c0,4.140626 3.355469,7.492188 7.492188,7.492188zm0,0"/>
      <path id="svg_52" fill="#000000" class="active-path" d="m399.46875,339.3125l50.902344,0c4.140625,0 7.496094,-3.351562 7.496094,-7.492188c0,-4.136718 -3.355469,-7.492187 -7.496094,-7.492187l-50.902344,0c-4.140625,0 -7.492188,3.355469 -7.492188,7.492187c0,4.140626 3.355469,7.492188 7.492188,7.492188zm0,0"/>
      <path id="svg_53" fill="#000000" class="active-path" d="m362.351562,339.3125l11.664063,0c4.140625,0 7.496094,-3.351562 7.496094,-7.492188c0,-4.136718 -3.355469,-7.492187 -7.496094,-7.492187l-11.664063,0c-4.140624,0 -7.492187,3.355469 -7.492187,7.492187c0,4.140626 3.351563,7.492188 7.492187,7.492188zm0,0"/>
      <path id="svg_54" fill="#000000" class="active-path" d="m336.898438,405.988281l-36.058594,0c-4.136719,0 -7.492188,3.355469 -7.492188,7.492188s3.355469,7.492187 7.492188,7.492187l36.058594,0c4.140624,0 7.492187,-3.355468 7.492187,-7.492187s-3.351563,-7.492188 -7.492187,-7.492188zm0,0"/>
      <path id="svg_55" fill="#000000" class="active-path" d="m450.371094,405.988281l-50.902344,0c-4.140625,0 -7.492188,3.355469 -7.492188,7.492188s3.351563,7.492187 7.492188,7.492187l50.902344,0c4.140625,0 7.496094,-3.355468 7.496094,-7.492187s-3.355469,-7.492188 -7.496094,-7.492188zm0,0"/>
      <path id="svg_56" fill="#000000" class="active-path" d="m374.015625,405.988281l-11.664063,0c-4.140624,0 -7.496093,3.355469 -7.496093,7.492188s3.355469,7.492187 7.496093,7.492187l11.664063,0c4.140625,0 7.492187,-3.355468 7.492187,-7.492187s-3.351562,-7.492188 -7.492187,-7.492188zm0,0"/>
      <path id="svg_57" fill="#000000" class="active-path" d="m478.023438,0.5l-446.042969,0c-18.183594,0 -32.980469,14.792969 -32.980469,32.980469l0,362.566406c0,18.183594 14.796875,32.976563 32.980469,32.976563l28.199219,0c4.136718,0 7.492187,-3.351563 7.492187,-7.492188c0,-4.136719 -3.355469,-7.492188 -7.492187,-7.492188l-28.199219,0c-9.921875,0 -17.992188,-8.070312 -17.992188,-17.992187l0,-28.425781l272.996094,0l0,12.914062l-5.941406,0c-8.128907,0 -14.738281,6.609375 -14.738281,14.738282l0,18.765624l-160.566407,0c-4.136719,0 -7.492187,3.355469 -7.492187,7.492188c0,4.140625 3.355468,7.492188 7.492187,7.492188l72.046875,0l0,26.875l-22.625,0c-15.09375,0 -27.371094,12.28125 -27.371094,27.371093l0,16.1875c0,6.886719 5.601563,12.488281 12.488282,12.488281l228.875,0c6.886718,0 12.488281,-5.601562 12.488281,-12.488281l0,-16.1875c0,-15.089843 -12.277344,-27.371093 -27.371094,-27.371093l-22.625,0l0,-9.472657l138.527344,0c8.125,0 14.734375,-6.609375 14.734375,-14.738281l0,-3.527344c14.605469,-3.390625 25.523438,-16.496094 25.523438,-32.113281l0.566406,-362.570313c0.003906,-18.183593 -14.789063,-32.976562 -32.972656,-32.976562zm-196.730469,349.28125l0,-35.917969l188.628906,0l0,35.917969l-188.628906,0zm20.675781,-50.90625l0,-15.765625l147.273438,0l0,15.765625l-147.273438,0zm147.273438,65.890625l0,15.769531l-147.273438,0l0,-15.769531l147.273438,0zm-256.472657,64.257813l73.535157,0l0,2.667968c0,8.125 6.609374,14.734375 14.738281,14.734375l35.617187,0l0,9.472657l-123.890625,0l0,-26.875zm161.503907,41.863281c6.828124,0 12.382812,5.554687 12.382812,12.382812l0,13.691407l-223.882812,0l0,-13.691407c0,-6.828125 5.558593,-12.382812 12.386718,-12.382812l199.113282,0zm115.648437,-39.449219l-188.628906,0l0,-35.914062l188.628906,0l0,35.914062zm25.523437,-35.390625c0,7.257813 -4.328124,13.511719 -10.535156,16.351563l0,-17.128907c0,-8.125 -6.613281,-14.734375 -14.738281,-14.734375l-5.941406,0l0,-12.914062l31.214843,0l0,28.425781zm0,-43.410156l-10.78125,0c0.152344,-0.847657 0.246094,-39.023438 0.246094,-39.023438c0,-8.128906 -6.613281,-14.738281 -14.738281,-14.738281l-5.941406,0l0,-15.765625l5.941406,0c8.125,0 14.738281,-6.613281 14.738281,-14.738281l0,-36.417969c0,-8.125 -6.613281,-14.738281 -14.738281,-14.738281l-42.324219,0c-4.140625,0 -7.492187,3.355468 -7.492187,7.496094c0,4.136718 3.351562,7.492187 7.492187,7.492187l42.074219,0l0,35.917969l-188.628906,0l0,-35.917969l99.929687,0c4.140625,0 7.492188,-3.355469 7.492188,-7.492187c0,-4.140626 -3.351563,-7.496094 -7.492188,-7.496094l-100.179687,0c-8.128907,0 -14.738281,6.613281 -14.738281,14.738281l0,36.417969c0,8.125 6.609374,14.738281 14.738281,14.738281l5.941406,0l0,15.765625l-5.941406,0c-8.128907,0 -14.738281,6.613281 -14.738281,14.738281c0,0 0.09375,38.175781 0.246093,39.023438l-252.5625,0l0,-250.207031l481.457031,0l0,250.207031zm0,-265.195313l-480.90625,0l0,-53.964844c0,-9.917968 8.070313,-17.988281 17.992188,-17.988281l444.921875,0c9.921875,0 17.992187,8.070313 17.992187,17.992188l0,53.960937zm0,0"/>
      <path id="svg_58" fill="#000000" class="active-path" d="m54.261719,29.261719c-12.125,0 -21.988281,9.863281 -21.988281,21.988281s9.863281,21.992188 21.988281,21.992188s21.992187,-9.867188 21.992187,-21.992188s-9.867187,-21.988281 -21.992187,-21.988281zm0,28.992187c-3.859375,0 -7.003907,-3.140625 -7.003907,-7.003906c0,-3.859375 3.144532,-7.003906 7.003907,-7.003906c3.863281,0 7.003906,3.144531 7.003906,7.003906c0,3.863281 -3.140625,7.003906 -7.003906,7.003906zm0,0"/>
      <path id="svg_59" fill="#000000" class="active-path" d="m110.25,29.261719c-12.125,0 -21.992188,9.863281 -21.992188,21.988281s9.867188,21.992188 21.992188,21.992188s21.988281,-9.867188 21.988281,-21.992188s-9.867187,-21.988281 -21.988281,-21.988281zm0,28.992187c-3.863281,0 -7.003906,-3.140625 -7.003906,-7.003906c0,-3.859375 3.140625,-7.003906 7.003906,-7.003906c3.859375,0 7.003906,3.144531 7.003906,7.003906c0,3.863281 -3.144531,7.003906 -7.003906,7.003906zm0,0"/>
      <path id="svg_60" fill="#000000" class="active-path" d="m166.234375,29.261719c-12.125,0 -21.988281,9.863281 -21.988281,21.988281s9.863281,21.992188 21.988281,21.992188s21.992187,-9.867188 21.992187,-21.992188s-9.867187,-21.988281 -21.992187,-21.988281zm0,28.992187c-3.859375,0 -7.003906,-3.140625 -7.003906,-7.003906c0,-3.859375 3.144531,-7.003906 7.003906,-7.003906c3.863281,0 7.003906,3.144531 7.003906,7.003906c0,3.863281 -3.140625,7.003906 -7.003906,7.003906zm0,0"/>
     </g>
    </g>
   </g>
  </g>
 </g>
</svg>