<svg width="64" height="64" xmlns="http://www.w3.org/2000/svg">

 <g>
  <title>background</title>
  <rect fill="none" id="canvas_background" height="482" width="642" y="-1" x="-1"/>
 </g>
 <g>
  <title>Layer 1</title>
  <g id="svg_1">
   <g id="svg_2">
    <g id="svg_3">
     <g id="svg_4">
      <g id="svg_5">
       <path id="svg_6" fill="#2190ec" d="m14,26.166663l0,36l-8,0c-2.21,0 -4,-1.79 -4,-4l0,-28c0,-2.21 1.79,-4 4,-4l8,0z"/>
      </g>
      <g id="svg_7">
       <path id="svg_8" fill="#2190ec" d="m62,48.166663l0,10c0,2.21 -1.79,4 -4,4l-4,0l0,-14c0,1.1 0.45,2.1 1.17,2.83c0.73,0.72 1.73,1.17 2.83,1.17c2.21,0 4,-1.79 4,-4z"/>
      </g>
      <g id="svg_9">
       <path id="svg_10" fill="#2190ec" d="m62,30.166663l0,10c0,-1.1 -0.45,-2.1 -1.17,-2.83c-0.73,-0.72 -1.73,-1.17 -2.83,-1.17c-2.21,0 -4,1.79 -4,4l0,-14l4,0c2.21,0 4,1.79 4,4z"/>
      </g>
      <g id="svg_11">
       <path id="svg_12" fill="#FF6584" d="m14,26.166663l0,36l40,0l0,-14l0,-8l0,-14l-40,0z"/>
      </g>
      <g id="svg_13">
       <path id="svg_14" fill="#2190ec" d="m17.833337,56.166663l0,-10l32,0l0,10c0,1.1 -0.9,2 -2,2l-28,0c-1.1,0 -2,-0.9 -2,-2z"/>
      </g>
      <g id="svg_15">
       <path id="svg_16" fill="#2190ec" d="m48,38.166663c1.1,0 2,0.9 2,2l0,2l-6,0c1.66,0 3,-1.34 3,-3c0,-0.35 -0.06,-0.69 -0.18,-1l1.18,0z"/>
      </g>
      <g id="svg_17">
       <path id="svg_18" fill="#2190ec" d="m21,39.166663c0,1.66 1.34,3 3,3l-6,0l0,-2c0,-1.1 0.9,-2 2,-2l1.18,0c-0.12,0.31 -0.18,0.65 -0.18,1z"/>
      </g>
      <g id="svg_19">
       <path id="svg_20" fill="#2190ec" d="m44,42.166663l-20,0c1.66,0 3,-1.34 3,-3s-1.34,-3 -3,-3l20,0c-1.66,0 -3,1.34 -3,3s1.34,3 3,3z"/>
      </g>
      <g id="svg_21">
       <path id="svg_22" fill="#fcd770" d="m50,42.166663l0,4l-32,0l0,-4l6,0l20,0l6,0z"/>
      </g>
      <g id="svg_23">
       <circle id="svg_24" r="2" fill="#FF6584" cy="52.166663" cx="44"/>
      </g>
      <g id="svg_25">
       <circle id="svg_26" r="2" fill="#FF6584" cy="52.166663" cx="40"/>
      </g>
      <g id="svg_27">
       <path id="svg_28" fill="#FF6584" d="m20,18.166663l0,14l24,0c0.29,0 0.57,-0.06 0.82,-0.18c0.69,-0.31 1.18,-1.01 1.18,-1.82l0,-10l-26,-2z"/>
      </g>
      <g id="svg_29">
       <path id="svg_30" fill="#2190ec" d="m24,36.166663c1.66,0 3,1.34 3,3s-1.34,3 -3,3s-3,-1.34 -3,-3c0,-0.35 0.06,-0.69 0.18,-1c0.4,-1.17 1.51,-2 2.82,-2z"/>
      </g>
      <g id="svg_31">
       <path id="svg_32" fill="#2190ec" d="m46.82,38.166663c0.12,0.31 0.18,0.65 0.18,1c0,1.66 -1.34,3 -3,3s-3,-1.34 -3,-3s1.34,-3 3,-3c1.31,0 2.42,0.83 2.82,2z"/>
      </g>
      <g id="svg_33">
       <path id="svg_34" fill="#e6e9ed" d="m10,55.166663l0,2c0,0.55 -0.45,1 -1,1l-2,0c-0.55,0 -1,-0.45 -1,-1l0,-2c0,-0.55 0.45,-1 1,-1l2,0c0.55,0 1,0.45 1,1z"/>
      </g>
      <g id="svg_35">
       <path id="svg_36" fill="#e6e9ed" d="m10,41.166663l0,6c0,0.55 -0.45,1 -1,1l-2,0c-0.55,0 -1,-0.45 -1,-1l0,-6c0,-0.55 0.45,-1 1,-1l2,0c0.55,0 1,0.45 1,1z"/>
      </g>
      <g id="svg_37">
       <path id="svg_38" fill="#e6e9ed" d="m10,31.166663l0,2c0,0.55 -0.45,1 -1,1l-2,0c-0.55,0 -1,-0.45 -1,-1l0,-2c0,-0.55 0.45,-1 1,-1l2,0c0.55,0 1,0.45 1,1z"/>
      </g>
      <g id="svg_39">
       <path id="svg_40" fill="#e6e9ed" d="m62,40.166663l0,8c0,2.21 -1.79,4 -4,4c-1.1,0 -2.1,-0.45 -2.83,-1.17c-0.72,-0.73 -1.17,-1.73 -1.17,-2.83l0,-8c0,-2.21 1.79,-4 4,-4c1.1,0 2.1,0.45 2.83,1.17c0.72,0.73 1.17,1.73 1.17,2.83z"/>
      </g>
      <g id="svg_41">
       <path id="svg_42" fill="#fcd770" d="m34,19.246663l-0.07,-0.01l-7.43,-0.57l-0.11,-0.01c-1.49,-1.74 -2.39,-4.01 -2.39,-6.49c0,-5.52 4.48,-10 10,-10s10,4.48 10,10c0,3.03 -1.35,5.75 -3.48,7.58l-6.52,-0.5z"/>
      </g>
     </g>
     <g id="svg_43">
      <path id="svg_44" fill="#000000" class="active-path" d="m57.666674,25.333326l-11,0l0,-5.926l-4.318,-0.332c1.486,-1.915 2.318,-4.277 2.318,-6.742c0,-6.065 -4.935,-11 -11,-11s-11,4.935 -11,11c0,1.879 0.489,3.712 1.389,5.335l-3.389,-0.261l0,-6.074c0,-1.654 -1.346,-3 -3,-3l-3,0l0,2l3,0c0.552,0 1,0.449 1,1l0,14l-13,0c-2.757,0 -5,2.243 -5,5l0,28c0,2.757 2.243,5 5,5l52,0c2.757,0 5,-2.243 5,-5l0,-10l0,-8l0,-10c0,-2.757 -2.243,-5 -5,-5zm3,5l0,6.026c-0.838,-0.635 -1.87,-1.026 -3,-1.026s-2.162,0.391 -3,1.026l0,-9.026l3,0c1.654,0 3,1.346 3,3zm0,18c0,1.654 -1.346,3 -3,3s-3,-1.346 -3,-3l0,-8c0,-1.654 1.346,-3 3,-3s3,1.346 3,3l0,8zm-30.586,-24l2.586,-2.586l2.586,2.586l-2.586,2.586l-2.586,-2.586zm1.172,4l-2.586,2.586l-2.586,-2.586l2.586,-2.586l2.586,2.586zm5.414,-2.586l2.586,2.586l-2.586,2.586l-2.586,-2.586l2.586,-2.586zm1.414,-1.414l2.586,-2.586l2.586,2.586l-2.586,2.586l-2.586,-2.586zm-1.414,-1.414l-2.465,-2.465l4.578,0.352l-2.113,2.113zm-8,0l-2.586,-2.586l0.468,-0.468l4.802,0.369l-2.684,2.685zm-4,-1.172l2.586,2.586l-2.586,2.586l-2.586,-2.586l2.586,-2.586zm-1.414,6.586l-2.586,2.586l0,-5.172l2.586,2.586zm1.414,1.414l1.586,1.586l-3.172,0l1.586,-1.586zm8,0l1.586,1.586l-3.172,0l1.586,-1.586zm8,0l1.586,1.586l-3.172,0l1.586,-1.586zm4,0.586c0,0.168 -0.052,0.32 -0.126,0.46l-2.46,-2.46l2.586,-2.586l0,4.586zm0,-7.414l-1.798,-1.798l1.798,0.138l0,1.66zm-20,-10.586c0,-4.962 4.037,-9 9,-9s9,4.038 9,9c0,2.489 -1.038,4.848 -2.843,6.547l-5.157,-0.396l0,-1.335c1.161,-0.414 2,-1.514 2,-2.816c0,-1.654 -1.346,-3 -3,-3c-0.552,0 -1,-0.449 -1,-1s0.448,-1 1,-1s1,0.449 1,1l2,0c0,-1.302 -0.839,-2.402 -2,-2.816l0,-2.184l-2,0l0,2.184c-1.161,0.414 -2,1.514 -2,2.816c0,1.654 1.346,3 3,3c0.552,0 1,0.449 1,1s-0.448,1 -1,1s-1,-0.449 -1,-1l-2,0c0,1.302 0.839,2.402 2,2.816l0,1.181l-6.091,-0.468c-1.229,-1.577 -1.909,-3.521 -1.909,-5.529zm-0.744,7.33l-3.256,3.256l0,-3.506l3.256,0.25zm-3.525,17.378c-0.065,0.093 -0.117,0.194 -0.175,0.292l-0.556,0c-1.654,0 -3,1.346 -3,3l0,16c0,1.654 1.346,3 3,3l28,0c1.654,0 3,-1.346 3,-3l0,-16c0,-1.654 -1.346,-3 -3,-3l-0.556,0c-0.694,-1.19 -1.97,-2 -3.444,-2l-22,0c-0.552,0 -1,-0.448 -1,-1l0,-1l23,0c1.654,0 3,-1.346 3,-3l0,-3l6,0l0,13l0,8l0,13l-38,0l0,-34l4,0l0,7c0,1.199 0.712,2.228 1.731,2.708zm27.269,2.292c0.552,0 1,0.448 1,1l0,1l-1.556,0c0.344,-0.591 0.556,-1.268 0.556,-2zm-27.444,2l-1.556,0l0,-1c0,-0.552 0.448,-1 1,-1c0,0.732 0.212,1.409 0.556,2zm-1.556,6l30,0l0,9c0,0.552 -0.448,1 -1,1l-28,0c-0.552,0 -1,-0.448 -1,-1l0,-9zm30,-2l-30,0l0,-2l30,0l0,2zm-5,-4c-1.103,0 -2,-0.897 -2,-2s0.897,-2 2,-2s2,0.897 2,2s-0.897,2 -2,2zm-3.444,0l-13.112,0c0.344,-0.591 0.556,-1.268 0.556,-2s-0.212,-1.409 -0.556,-2l13.112,0c-0.344,0.591 -0.556,1.268 -0.556,2s0.212,1.409 0.556,2zm-14.556,-2c0,1.103 -0.897,2 -2,2s-2,-0.897 -2,-2s0.897,-2 2,-2s2,0.897 2,2zm-23,19l0,-28c0,-1.654 1.346,-3 3,-3l7,0l0,34l-7,0c-1.654,0 -3,-1.346 -3,-3zm55,3l-3,0l0,-9.026c0.838,0.635 1.87,1.026 3,1.026s2.162,-0.391 3,-1.026l0,6.026c0,1.654 -1.346,3 -3,3z"/>
      <path id="svg_45" fill="#000000" class="active-path" d="m8.666674,39.333326l-2,0c-1.103,0 -2,0.897 -2,2l0,6c0,1.103 0.897,2 2,2l2,0c1.103,0 2,-0.897 2,-2l0,-6c0,-1.103 -0.897,-2 -2,-2zm0,8l-2,0.002l0,-6.002l2,0l0,6z"/>
      <path id="svg_46" fill="#000000" class="active-path" d="m8.666674,53.333326l-2,0c-1.103,0 -2,0.897 -2,2l0,2c0,1.103 0.897,2 2,2l2,0c1.103,0 2,-0.897 2,-2l0,-2c0,-1.103 -0.897,-2 -2,-2zm0,4l-2,0.002l0,-2.002l2,0l0,2z"/>
      <path id="svg_47" fill="#000000" class="active-path" d="m8.666674,29.333326l-2,0c-1.103,0 -2,0.897 -2,2l0,2c0,1.103 0.897,2 2,2l2,0c1.103,0 2,-0.897 2,-2l0,-2c0,-1.103 -0.897,-2 -2,-2zm0,4l-2,0.002l0,-2.002l2,0l0,2z"/>
      <circle id="svg_48" fill="#000000" class="active-path" r="1" cy="40.333326" cx="57.666674"/>
      <circle id="svg_49" fill="#000000" class="active-path" r="1" cy="44.333326" cx="57.666674"/>
      <circle id="svg_50" fill="#000000" class="active-path" r="1" cy="48.333326" cx="57.666674"/>
      <path id="svg_51" fill="#000000" class="active-path" d="m39.666674,55.333326c0.771,0 1.468,-0.301 2,-0.78c0.532,0.48 1.229,0.78 2,0.78c1.654,0 3,-1.346 3,-3s-1.346,-3 -3,-3c-0.771,0 -1.468,0.301 -2,0.78c-0.532,-0.48 -1.229,-0.78 -2,-0.78c-1.654,0 -3,1.346 -3,3s1.346,3 3,3zm4,-4c0.552,0 1,0.448 1,1s-0.448,1 -1,1s-1,-0.448 -1,-1s0.448,-1 1,-1zm-4,0c0.552,0 1,0.448 1,1s-0.448,1 -1,1s-1,-0.448 -1,-1s0.448,-1 1,-1z"/>
      <path id="svg_52" fill="#000000" class="active-path" d="m20.666674,49.333326l8,0l0,2l-8,0l0,-2z"/>
      <path id="svg_53" fill="#000000" class="active-path" d="m20.666674,53.333326l8,0l0,2l-8,0l0,-2z"/>
     </g>
    </g>
   </g>
  </g>
 </g>
</svg>