<svg width="64" height="64" xmlns="http://www.w3.org/2000/svg">

 <g>
  <title>background</title>
  <rect fill="none" id="canvas_background" height="482" width="642" y="-1" x="-1"/>
 </g>
 <g>
  <title>Layer 1</title>
  <g id="svg_1">
   <g id="Website_optimize">
    <path id="svg_2" fill="#FF6584" d="m3,13l58,0a0,0 0 0 1 0,0l0,40a2,2 0 0 1 -2,2l-54,0a2,2 0 0 1 -2,-2l0,-40a0,0 0 0 1 0,0z"/>
    <path id="svg_3" fill="#FF6584" d="m25,55l34,0a2,2 0 0 0 2,-2l0,-34a36,36 0 0 1 -36,36z"/>
    <path id="svg_4" fill="#2190ec" d="m61,5l0,8l-58,0l0,-8a2.006,2.006 0 0 1 2,-2l54,0a2.006,2.006 0 0 1 2,2z"/>
    <path id="svg_5" fill="#FCD770" d="m55,6l-28,0a2,2 0 0 0 0,4l28,0a2,2 0 0 0 0,-4z"/>
    <circle id="svg_6" fill="#57a4ff" r="1" cy="8" cx="8"/>
    <circle id="svg_7" fill="#57a4ff" r="1" cy="8" cx="14"/>
    <circle id="svg_8" fill="#57a4ff" r="1" cy="8" cx="20"/>
    <path id="svg_9" fill="#FCD770" d="m24.22,59.02l3.16,-3.16a9.244,9.244 0 0 0 1.62,0.68l0,4.46l6,0l0,-4.46a9.244,9.244 0 0 0 1.62,-0.68l3.16,3.16l4.24,-4.24l-3.16,-3.16a9.244,9.244 0 0 0 0.68,-1.62l4.46,0l0,-6l-4.46,0a9.244,9.244 0 0 0 -0.68,-1.62l3.16,-3.16l-4.24,-4.24l-3.16,3.16a9.244,9.244 0 0 0 -1.62,-0.68l0,-4.46l-6,0l0,4.46a9.244,9.244 0 0 0 -1.62,0.68l-3.16,-3.16l-4.24,4.24l3.16,3.16a9.244,9.244 0 0 0 -0.68,1.62l-4.46,0l0,6l4.46,0a9.244,9.244 0 0 0 0.68,1.62l-3.16,3.16l4.24,4.24zm7.78,-17.02a5,5 0 1 1 -5,5a5,5 0 0 1 5,-5z"/>
    <circle id="svg_10" fill="#f1f2f2" r="5" cy="47" cx="32"/>
    <path id="svg_11" fill="#2190ec" class="active-path" d="m45,25.037l2,-3.037l6.32,0a7,7 0 0 0 -11.372,-1.846a5.97,5.97 0 0 1 -4.318,1.846l-23.63,0a3,3 0 0 0 0,6l23.63,0a5.97,5.97 0 0 1 4.318,1.846a7,7 0 0 0 11.372,-1.846l-6.32,0l-2,-2.963z"/>
    <path id="svg_12" fill="#000000" d="m59,2l-54,0a3,3 0 0 0 -3,3l0,48a3,3 0 0 0 3,3l14.786,0l3.727,3.727a1,1 0 0 0 1.414,0l2.654,-2.654c0.136,0.059 0.275,0.117 0.419,0.174l0,3.753a1,1 0 0 0 1,1l6,0a1,1 0 0 0 1,-1l0,-3.753c0.144,-0.057 0.283,-0.115 0.419,-0.174l2.654,2.654a1.029,1.029 0 0 0 1.414,0l3.727,-3.727l14.786,0a3,3 0 0 0 3,-3l0,-48a3,3 0 0 0 -3,-3zm-19.22,55.606l-2.453,-2.453a1,1 0 0 0 -1.188,-0.17a8.112,8.112 0 0 1 -1.446,0.605a1,1 0 0 0 -0.693,0.952l0,3.46l-4,0l0,-3.46a1,1 0 0 0 -0.693,-0.952a8.112,8.112 0 0 1 -1.446,-0.605a1,1 0 0 0 -1.188,0.17l-2.453,2.453l-2.82,-2.826l2.452,-2.453a1,1 0 0 0 0.17,-1.187a8.225,8.225 0 0 1 -0.605,-1.446a1,1 0 0 0 -0.957,-0.694l-3.46,0l0,-4l3.46,0a1,1 0 0 0 0.952,-0.694a8.225,8.225 0 0 1 0.605,-1.446a1,1 0 0 0 -0.17,-1.187l-2.447,-2.453l2.825,-2.826l2.453,2.453a1,1 0 0 0 1.188,0.17a8.112,8.112 0 0 1 1.446,-0.605a1,1 0 0 0 0.688,-0.952l0,-3.46l4,0l0,3.46a1,1 0 0 0 0.693,0.952a8.112,8.112 0 0 1 1.446,0.605a1,1 0 0 0 1.188,-0.17l2.453,-2.453l2.825,2.826l-2.452,2.453a1,1 0 0 0 -0.17,1.187a8.225,8.225 0 0 1 0.605,1.446a1,1 0 0 0 0.952,0.694l3.46,0l0,4l-3.46,0a1,1 0 0 0 -0.952,0.694a8.225,8.225 0 0 1 -0.605,1.446a1,1 0 0 0 0.17,1.187l2.452,2.453l-2.825,2.826zm20.22,-4.606a1,1 0 0 1 -1,1l-14.346,0l-2.581,-2.582c0.06,-0.135 0.117,-0.274 0.174,-0.418l3.753,0a1,1 0 0 0 1,-1l0,-6a1,1 0 0 0 -1,-1l-3.753,0c-0.057,-0.144 -0.114,-0.283 -0.174,-0.419l2.654,-2.654a1,1 0 0 0 0,-1.414l-4.24,-4.24a1,1 0 0 0 -1.414,0l-2.654,2.654c-0.136,-0.059 -0.275,-0.117 -0.419,-0.174l0,-3.753a1,1 0 0 0 -1,-1l-6,0a1,1 0 0 0 -1,1l0,3.753c-0.144,0.057 -0.283,0.115 -0.419,0.174l-2.654,-2.654a1.029,1.029 0 0 0 -1.414,0l-4.24,4.24a1,1 0 0 0 0,1.414l2.654,2.654c-0.06,0.136 -0.117,0.275 -0.174,0.419l-3.753,0a1,1 0 0 0 -1,1l0,6a1,1 0 0 0 1,1l3.753,0c0.057,0.144 0.114,0.283 0.174,0.418l-2.581,2.582l-14.346,0a1,1 0 0 1 -1,-1l0,-39l56,0l0,39zm-56,-41l0,-7a1,1 0 0 1 1,-1l54,0a1,1 0 0 1 1,1l0,7l-56,0z"/>
    <path id="svg_13" fill="#000000" d="m55,5l-28,0a3,3 0 0 0 0,6l28,0a3,3 0 0 0 0,-6zm0,4l-28,0a1,1 0 0 1 0,-2l28,0a1,1 0 0 1 0,2z"/>
    <circle id="svg_14" fill="#000000" r="2" cy="8" cx="8"/>
    <circle id="svg_15" fill="#000000" r="2" cy="8" cx="14"/>
    <circle id="svg_16" fill="#000000" r="2" cy="8" cx="20"/>
    <path id="svg_17" fill="#000000" d="m32,41a6,6 0 1 0 6,6a6.006,6.006 0 0 0 -6,-6zm0,10a4,4 0 1 1 4,-4a4,4 0 0 1 -4,4z"/>
    <path id="svg_18" fill="#000000" d="m14,29l23.63,0a5,5 0 0 1 3.6,1.537a8,8 0 0 0 13,-2.11a1,1 0 0 0 -0.91,-1.427l-5.789,0l-1.331,-1.97l1.339,-2.03l5.781,0a1,1 0 0 0 0.905,-1.427a8,8 0 0 0 -13,-2.11a5,5 0 0 1 -3.595,1.537l-23.63,0a4,4 0 0 0 0,8zm0,-6l23.63,0a7.005,7.005 0 0 0 5.041,-2.155a6.007,6.007 0 0 1 8.807,0.155l-4.478,0a1,1 0 0 0 -0.835,0.45l-2,3.037a1,1 0 0 0 0.006,1.109l2,2.964a1,1 0 0 0 0.829,0.44l4.478,0a6.007,6.007 0 0 1 -8.807,0.155a7.005,7.005 0 0 0 -5.041,-2.155l-23.63,0a2,2 0 0 1 0,-4z"/>
    <path id="svg_19" fill="#000000" d="m15,26l1,0a1,1 0 0 0 0,-2l-1,0a1,1 0 0 0 0,2z"/>
    <path id="svg_20" fill="#000000" d="m19,26l14,0a1,1 0 0 0 0,-2l-14,0a1,1 0 0 0 0,2z"/>
    <path id="svg_21" fill="#000000" d="m36,26l1,0a1,1 0 0 0 0,-2l-1,0a1,1 0 0 0 0,2z"/>
   </g>
  </g>
 </g>
</svg>