<?xml version="1.0" encoding="UTF-8"?>
<svg width="9767px" height="6196px" viewBox="0 0 9767 6196" version="1.1" xmlns="http://www.w3.org/2000/svg" xmlns:xlink="http://www.w3.org/1999/xlink">
    <!-- Generator: Sketch 54.1 (76490) - https://sketchapp.com -->
    <title>Group 8</title>
    <desc>Created with Sketch.</desc>
    <defs>
        <linearGradient x1="87.109375%" y1="14.0898438%" x2="15.765625%" y2="78.8203125%" id="linearGradient-1">
            <stop stop-color="#5BB082" offset="0%"></stop>
            <stop stop-color="#9CE7BF" offset="37.2052909%"></stop>
            <stop stop-color="#9CE7BF" stop-opacity="0" offset="100%"></stop>
        </linearGradient>
    </defs>
    <g id="DC" stroke="none" stroke-width="1" fill="none" fill-rule="evenodd">
        <g id="Artboard" transform="translate(-3190.000000, -1838.000000)">
            <g id="Group-8" transform="translate(3190.000000, 1838.000000)">
                <path d="M8363.82162,4974.13105 C6017.06931,4923.4928 4711.33976,5994.56862 3569.01172,6153.94574 C2076.21376,6362.22027 962.161338,5768.9961 748.426975,4990.0442 C492.524417,4057.41089 843.491844,3747.11958 638.279823,3078.75659 C525.02249,2709.88439 212.087114,2571.77299 30.8605767,1831.24577 C-160.02641,1051.24406 553.577436,263.657828 1647.13115,425.121135 C2653.4874,573.709727 4137.83057,1018.16744 5206.85726,686.720905 C6323.10592,340.633428 6858.11143,-290.535766 7900.17952,151.775809 C8784.73439,527.230022 8353.60366,1660.76014 8709.51951,2236.48446 C9145.98607,2942.50642 9425.72459,2923.1396 9676.96605,3454.26921 C9933.09402,3995.729 9686.74097,5002.67701 8363.82162,4974.13105 Z" id="Path-2" fill="#F4F7FB"></path>
                <path d="M1524.72898,4999.08501 C441.386717,5021.6488 239.054131,4202.9463 448.483849,3762.89923 C653.917985,3331.24756 883.011516,3347.12731 1240.0268,2773.38951 C1531.15427,2305.53606 1177.43019,1383.84088 1901.58567,1079.05057 C2754.69197,719.98606 3193.18621,1233.34507 4107.50228,1515.23346 C4983.13897,1785.19679 6198.42987,1424.60231 7022.46336,1304.29805 C7917.89666,1173.56981 8502.73952,1814.17235 8346.87648,2448.17007 C8198.9014,3050.08231 7942.71477,3162.20593 7850.18284,3462.01993 C7682.52336,4005.25573 7970.11788,4257.67265 7761.10207,5015.71832 C7586.52835,5648.85153 6674.56145,6130.56317 5451.96416,5960.5249 C4516.40073,5830.40717 3446.49085,4959.05868 1524.72898,4999.08501 Z" id="Path-2-Copy" fill="#DBE3EE" style="mix-blend-mode: multiply;" opacity="0.149999991"></path>
                <circle id="Oval-Copy-7" fill="url(#linearGradient-1)" opacity="0.300000012" cx="1268.5" cy="1677.5" r="446.5"></circle>
            </g>
        </g>
    </g>
</svg>