<?xml version="1.0"?>
<svg xmlns="http://www.w3.org/2000/svg" id="Filled" height="512px" viewBox="0 0 512 512" width="512px" class=""><g><g><rect fill="#e9eef2" height="416" rx="16" transform="matrix(-1 0 0 -1 512 464)" width="464" x="24" y="24" data-original="#FF6584" class="" style="fill:#FF6584" data-old_color="#e9eef2"/><rect fill="#e9eef2" height="416" rx="16" transform="matrix(-1 0 0 -1 512 464)" width="464" x="24" y="24" data-original="#FF6584" class="" style="fill:#FF6584" data-old_color="#e9eef2"/><path d="m488 87.98v336.02a16 16 0 0 1 -16 16h-432a16 16 0 0 1 -16-16v-336.31z" fill="none"/><path d="m488 40v47.98l-464-.29v-47.69a16 16 0 0 1 16-16h432a16 16 0 0 1 16 16z" fill="#dadcde" data-original="#2190EC" class="" style="fill:#2190EC" data-old_color="#dadcde"/><circle cx="352" cy="240" fill="#e9eef2" r="88" data-original="#FF6584" class="" style="fill:#FF6584" data-old_color="#e9eef2"/><path d="m48 120h224v96h-224z" fill="#a3d4f7" data-original="#A3D4F7" class="active-path" style="fill:#FCD770" data-old_color="#a3d4f7"/><path d="m463.042 486.379a16 16 0 0 1 -21.392-7.374l-51.55-107.105 28.766-14.018 51.549 107.107a16 16 0 0 1 -7.373 21.39z" fill="#1261a0" data-original="#2190EC" class="" style="fill:#2190EC" data-old_color="#1261a0"/><path d="m463.04 486.38a16 16 0 0 1 -21.39-7.37l-37.67-78.27 28.77-14.03 37.67 78.28a16 16 0 0 1 -7.38 21.39z" fill="none"/><path d="m432.75 386.71-28.77 14.03-13.88-28.84 28.77-14.02z" fill="#a3d4f7" data-original="#A3D4F7" class="active-path" style="fill:#FCD770" data-old_color="#a3d4f7"/><path d="m352 136.565a104 104 0 1 0 104 104 104 104 0 0 0 -104-104zm-.024 176.023a72 72 0 1 1 72-72 72 72 0 0 1 -72 72z" fill="#1261a0" data-original="#2190EC" class="" style="fill:#2190EC" data-old_color="#1261a0"/><path d="m40 448h377.849l16.61 34.511a24.006 24.006 0 0 0 32.087 11.06 24 24 0 0 0 11.078-32.053l-6.505-13.518h.881a24.028 24.028 0 0 0 24-24v-384a24.028 24.028 0 0 0 -24-24h-432a24.028 24.028 0 0 0 -24 24v384a24.028 24.028 0 0 0 24 24zm423.6 26.6a8 8 0 0 1 -14.738.932l-34.22-71.1 14.383-7.009 34.2 71.064a7.951 7.951 0 0 1 .375 6.113zm-263.6-298.6h-136v-16h56a8 8 0 0 0 0-16h-56v-16h208v34.267a112.1 112.1 0 0 0 -27.166 45.733h-180.834v-16h136a8 8 0 0 0 0-16zm152-31.436a96 96 0 1 1 -96 96 96.109 96.109 0 0 1 96-96zm55.7 245.456-6.938-14.42 14.383-7.01 6.939 14.418zm-375.7-350.02a8.009 8.009 0 0 1 8-8h432a8.009 8.009 0 0 1 8 8v40h-448zm0 56h448v328a8.009 8.009 0 0 1 -8 8h-8.582l-22.781-47.334a7.959 7.959 0 0 0 -.561-1.524 8.072 8.072 0 0 0 -.8-1.3l-13.2-27.431a8 8 0 0 0 -10.713-3.722l-7.191 3.5-6.472-13.28a111.974 111.974 0 1 0 -113.7-192.203v-28.706a8 8 0 0 0 -8-8h-224a8 8 0 0 0 -8 8v96a8 8 0 0 0 8 8h185.227a112.009 112.009 0 0 0 145.64 123l6.921 14.2-7.192 3.5a8 8 0 0 0 -3.7 10.661l27.253 56.639h-370.149a8.009 8.009 0 0 1 -8-8z" data-original="#000000" class="" style="fill:#000000"/><circle cx="120" cy="56" r="8" data-original="#000000" class="" style="fill:#000000"/><circle cx="88" cy="56" r="8" data-original="#000000" class="" style="fill:#000000"/><circle cx="56" cy="56" r="8" data-original="#000000" class="" style="fill:#000000"/><path d="m56 256h64a8 8 0 0 0 0-16h-64a8 8 0 0 0 0 16z" data-original="#000000" class="" style="fill:#000000"/><path d="m56 288h144a8 8 0 0 0 0-16h-144a8 8 0 0 0 0 16z" data-original="#000000" class="" style="fill:#000000"/><path d="m56 320h64a8 8 0 0 0 0-16h-64a8 8 0 0 0 0 16z" data-original="#000000" class="" style="fill:#000000"/><path d="m56 352h184a8 8 0 0 0 0-16h-184a8 8 0 0 0 0 16z" data-original="#000000" class="" style="fill:#000000"/><path d="m56 384h64a8 8 0 0 0 0-16h-64a8 8 0 0 0 0 16z" data-original="#000000" class="" style="fill:#000000"/><path d="m56 416h256a8 8 0 0 0 0-16h-256a8 8 0 0 0 0 16z" data-original="#000000" class="" style="fill:#000000"/><path d="m352 256a8 8 0 0 0 8-8v-16a8 8 0 0 0 -16 0v16a8 8 0 0 0 8 8z" data-original="#000000" class="" style="fill:#000000"/><path d="m320 256a8 8 0 0 0 8-8v-16a8 8 0 0 0 -16 0v16a8 8 0 0 0 8 8z" data-original="#000000" class="" style="fill:#000000"/><path d="m384 256a8 8 0 0 0 8-8v-32a8 8 0 0 0 -16 0v32a8 8 0 0 0 8 8z" data-original="#000000" class="" style="fill:#000000"/><path d="m351.977 320.588a80 80 0 1 0 -80-80 80.091 80.091 0 0 0 80 80zm0-144a64 64 0 1 1 -64 64 64.073 64.073 0 0 1 64-64z" data-original="#000000" class="" style="fill:#000000"/></g></g> </svg>
